<svg xmlns="http://www.w3.org/2000/svg"><style>:root svg:not(:target){display:none}</style><svg viewBox="0 0 20 20" fill="none" id="cart"><path d="M6.86 4.62c.58-3.88 6.17-3.87 6.85 0m3.7 1.72 1.42 9.1a2 2 0 0 1-1.16 2.14 2.1 2.1 0 0 1-.85.19h-13.63a2.06 2.06 0 0 1-1.97-1.47 2 2 0 0 1-.05-.86l1.41-9.1a2.02 2.02 0 0 1 2.02-1.72h10.8a2.06 2.06 0 0 1 2.02 1.72Z" stroke="#000" stroke-linejoin="round"></path></svg><svg viewBox="0 0 22 22" fill="none" id="close"><path d="m17.5 4.5-13 13m0-13 13 13" stroke="#000" stroke-width="1.5"></path></svg><svg viewBox="0 0 20 20" fill="none" id="like"><path d="m16.9 10.82-6.9 6.9-6.9-6.9a4.64 4.64 0 0 1 5.5-7.35c.55.32 1.03.75 1.4 1.26a4.61 4.61 0 0 1 5.08-1.63 4.6 4.6 0 0 1 3.2 4.29 4.67 4.67 0 0 1-1.37 3.44" stroke="#000" stroke-linecap="round" stroke-linejoin="round"></path></svg><svg viewBox="0 0 32 32" fill="none" id="minus"><path d="M10 16h12" stroke="#000" stroke-width="2" stroke-linecap="round" stroke-linejoin="round"></path></svg><svg viewBox="0 0 32 32" fill="none" id="plus"><path d="M10 16h12m-6-6v12" stroke="#000" stroke-width="2" stroke-linecap="round" stroke-linejoin="round"></path></svg><svg viewBox="0 0 20 20" fill="none" id="search"><path d="m14.6 14.6 3.69 3.69" stroke="#000" stroke-linejoin="round"></path><path d="M16.44 9.08a7.36 7.36 0 1 1-14.73 0 7.36 7.36 0 0 1 14.73 0Z" stroke="#000"></path></svg><svg viewBox="0 0 20 20" fill="none" id="user"><path d="M9.93 1.64a5.88 5.88 0 0 1 5.88 5.88c0 3.24-2.63 5.8-5.88 5.8a5.82 5.82 0 0 1-5.88-5.8 5.88 5.88 0 0 1 5.88-5.88Z" stroke="#000"></path><path d="M1.14 19.07a10.09 10.09 0 0 1 17.72 0" stroke="#000"></path></svg></svg>