<svg viewBox="0 0 100 22" fill="none" xmlns="http://www.w3.org/2000/svg"><path d="M5.22 18.7c0 .66.07 1.14.2 1.43.15.3.4.5.76.61.37.1.97.14 1.79.14h3.74a4.2 4.2 0 0 0 3.13-1.19 6.1 6.1 0 0 0 1.55-3.3c0-.06.05-.08.17-.06.14 0 .2.03.2.1a44.2 44.2 0 0 0-.3 4.65c0 .18-.04.32-.1.41-.08.07-.21.1-.42.1h-15.87c-.05 0-.07-.07-.07-.2 0-.14.02-.2.07-.2.87 0 1.5-.06 1.89-.17.41-.12.69-.33.82-.65.14-.34.2-.85.2-1.53v-15.72a4 4 0 0 0-.2-1.49c-.13-.32-.41-.53-.82-.65a6.27 6.27 0 0 0-1.9-.2c-.04 0-.06-.07-.06-.2 0-.14.02-.2.07-.2l1.68.03c.96.04 1.74.07 2.34.07.64 0 1.44-.03 2.4-.07l1.65-.04c.07 0 .1.07.1.2 0 .14-.03.21-.1.21a6.7 6.7 0 0 0-1.89.2c-.39.12-.66.34-.82.68a4 4 0 0 0-.2 1.5v15.55Zm26.99 3.3c-2.13 0-4.03-.49-5.7-1.46-1.65-1-2.93-2.33-3.85-4a11.7 11.7 0 0 1-1.34-5.54c0-2.33.6-4.32 1.79-5.98a11.14 11.14 0 0 1 4.57-3.76 13.96 13.96 0 0 1 5.73-1.26 10.57 10.57 0 0 1 9.52 5.5 10.9 10.9 0 0 1 1.34 5.26c0 2.06-.55 3.95-1.65 5.67a12.32 12.32 0 0 1-10.4 5.57Zm1.2-.71c1.56 0 2.96-.38 4.2-1.12a7.6 7.6 0 0 0 2.95-3.3 11.3 11.3 0 0 0 1.1-5.16c0-2.12-.4-4.01-1.2-5.67a9.24 9.24 0 0 0-3.4-3.87 9.2 9.2 0 0 0-5.09-1.39c-2.52 0-4.49.8-5.9 2.41-1.43 1.6-2.14 3.82-2.14 6.62 0 2.13.4 4.08 1.2 5.84.8 1.74 1.93 3.12 3.37 4.14a8.4 8.4 0 0 0 4.91 1.5Zm28.89.71c-2.5 0-4.67-.48-6.52-1.43a10.35 10.35 0 0 1-4.26-3.87 10.55 10.55 0 0 1-1.44-5.46c0-2.2.56-4.14 1.68-5.84a11.5 11.5 0 0 1 4.67-3.97c2-.95 4.24-1.43 6.73-1.43 1.13 0 2.2.11 3.2.34 1.03.2 1.87.5 2.5.88.19.12.3.22.32.3.04.08.08.23.1.48l.41 3.8c0 .07-.07.12-.2.14-.12 0-.19-.03-.21-.1a6.76 6.76 0 0 0-2.75-3.77 8.45 8.45 0 0 0-4.84-1.32c-2.89 0-5.12.82-6.7 2.48-1.58 1.65-2.37 3.91-2.37 6.79 0 2.2.44 4.16 1.34 5.9a10.19 10.19 0 0 0 9.17 5.5 9.5 9.5 0 0 0 2.71-.3 2.3 2.3 0 0 0 1.41-1.2c.3-.58.45-1.45.45-2.6 0-1.18-.08-2-.24-2.45-.14-.47-.47-.8-1-.95a9.86 9.86 0 0 0-2.64-.24c-.14 0-.21-.09-.21-.27 0-.07.01-.12.03-.17.05-.07.1-.1.14-.1a58.07 58.07 0 0 0 7.7.07c.04 0 .08.03.1.1.05.04.07.09.07.13 0 .16-.06.24-.17.24-.55-.02-.94.06-1.17.24-.23.16-.38.5-.45 1.02s-.1 1.42-.1 2.71c0 1.02.03 1.75.1 2.18.1.43.14.7.14.81 0 .14-.02.23-.07.27a.8.8 0 0 1-.3.14 33.7 33.7 0 0 1-7.32.95Zm25.64 0c-2.13 0-4.03-.49-5.7-1.46-1.65-1-2.93-2.33-3.85-4a11.7 11.7 0 0 1-1.34-5.54c0-2.33.6-4.32 1.79-5.98a11.14 11.14 0 0 1 4.57-3.76 13.96 13.96 0 0 1 5.73-1.26 10.57 10.57 0 0 1 9.52 5.5 10.9 10.9 0 0 1 1.34 5.26c0 2.06-.55 3.95-1.65 5.67a12.32 12.32 0 0 1-10.4 5.57Zm1.2-.71c1.56 0 2.96-.38 4.2-1.12a7.6 7.6 0 0 0 2.95-3.3 11.3 11.3 0 0 0 1.1-5.16c0-2.12-.4-4.01-1.2-5.67a9.24 9.24 0 0 0-3.4-3.87 9.2 9.2 0 0 0-5.09-1.39c-2.52 0-4.49.8-5.9 2.41-1.43 1.6-2.14 3.82-2.14 6.62 0 2.13.4 4.08 1.2 5.84.8 1.74 1.93 3.12 3.37 4.14a8.4 8.4 0 0 0 4.91 1.5Z" fill="#000"/></svg>